<svg xmlns="http://www.w3.org/2000/svg" width="928" height="550" viewBox="0 0 928 550">
    <g fill="#2cc1ff">
        <path d="M133.867 849.733l-66.134-52.108S116.8 742.186 172.267 707C158.4 665.423 139.2 566.271 154.133 502.3c46.933-22.389 106.667-31.984 197.333-36.249 32-52.241 60.8-115.144 174.933-166.319 62.933 21.323 155.733 83.16 183.467 166.319 87.467 5.331 120.533-1.066 197.333 43.712 11.733 74.63 9.6 87.424-18.133 197.238 35.2 19.191 106.667 83.16 106.667 83.16l-65.067 59.571s-73.6-77.7-144-108.614c29.867-68.234 45.867-118.343 45.867-169.518C779.2 548.146 756.8 544.948 664 555.609c-38.4-75.7-71.467-129-132.267-155.658-59.733 22.389-131.2 150.327-131.2 150.327s-120.533-8.529-169.6 12.794c2.133 68.234 40.533 173.782 54.4 178.047-56.533 20.257-151.466 108.614-151.466 108.614z" opacity="0.5" transform="translate(-67.733 -295.733) translate(0 -4)"/>
        <path d="M124.6 772.667L67.733 727.86s42.195-47.672 89.893-77.925c-11.925-35.754-28.436-121.012-15.594-176.018 40.36-19.252 91.728-27.5 169.7-31.17 27.518-44.921 52.285-99.01 150.433-143.014 54.119 18.335 133.922 71.507 157.772 143.014 75.217 4.584 103.652-.917 169.7 37.587 10.09 64.173 8.255 75.174-15.594 169.6 30.27 16.5 91.728 71.507 91.728 71.507l-55.961 51.226s-63.292-66.809-123.832-93.395c25.684-58.673 39.443-101.76 39.443-145.765-45.864-20.169-65.127-22.919-144.93-13.751-33.022-65.09-61.457-110.928-113.742-133.847-51.367 19.252-112.825 129.263-112.825 129.263s-103.652-7.334-145.847 11c1.835 58.673 34.857 149.432 46.781 153.1C206.242 696.69 124.6 772.667 124.6 772.667z" transform="translate(-67.733 -295.733) translate(64.985 59.533)"/>
    </g>
</svg>
