<svg xmlns="http://www.w3.org/2000/svg" width="100" height="100" viewBox="0 0 100 100">
    <defs>
        <style>
            .cls-3{fill:#fff}
        </style>
    </defs>
    <g id="icon_temperature" transform="translate(-92 -1024)">
        <g id="합치기_5" fill="none" stroke="none">
            <path d="M-520 73a21.969 21.969 0 0 1 9-17.75V13a13 13 0 0 1 13-13 13 13 0 0 1 13 13v42.25A21.97 21.97 0 0 1-476 73a22 22 0 0 1-22 22 22 22 0 0 1-22-22z" transform="translate(644 1026)"/>
            <path fill="#fff" d="M-498 91c4.808 0 9.328-1.872 12.728-5.272 3.4-3.4 5.272-7.92 5.272-12.728 0-2.917-.675-5.698-2.005-8.266-1.272-2.455-3.126-4.619-5.361-6.259L-489 57.276V13c0-4.963-4.037-9-9-9s-9 4.037-9 9v44.277l-1.634 1.198c-2.236 1.64-4.09 3.805-5.361 6.259-1.33 2.568-2.005 5.35-2.005 8.266 0 4.808 1.872 9.328 5.272 12.728 3.4 3.4 7.92 5.272 12.728 5.272m0 4c-12.15 0-22-9.85-22-22 0-7.287 3.543-13.746 9-17.75V13c0-7.18 5.82-13 13-13s13 5.82 13 13v42.25c5.457 4.004 9 10.463 9 17.75 0 12.15-9.85 22-22 22z" transform="translate(644 1026)"/>
        </g>
        <path id="합치기_6" d="M-520 26.068a7.934 7.934 0 0 1 4.873-7.3v-34.64A3.128 3.128 0 0 1-512-19a3.128 3.128 0 0 1 3.128 3.128v34.636a7.934 7.934 0 0 1 4.873 7.3A7.967 7.967 0 0 1-512 34a7.967 7.967 0 0 1-8-7.932z" class="cls-3" transform="translate(658 1073)"/>
        <path id="사각형_16" d="M0 0H12V4H0z" class="cls-3" transform="translate(116 1040)"/>
        <path id="사각형_17" d="M0 0H15V4H0z" class="cls-3" transform="translate(113 1048)"/>
        <path id="사각형_18" d="M0 0H12V4H0z" class="cls-3" transform="translate(116 1056)"/>
        <path id="사각형_19" d="M0 0H15V4H0z" class="cls-3" transform="translate(113 1064)"/>
        <path id="사각형_20" d="M0 0H12V4H0z" class="cls-3" transform="translate(116 1072)"/>
    </g>
</svg>
