<svg xmlns="http://www.w3.org/2000/svg" width="100" height="100" viewBox="0 0 100 100">
    <g>
        <path fill="#fff" d="M39.605 83.171v-9.052a2.829 2.829 0 0 1 5.657 0v9.052a2.829 2.829 0 1 1-5.657 0zM68.53 72.53l-6.4-6.4a2.829 2.829 0 0 1 4-4l6.4 6.4a2.829 2.829 0 0 1-4 4zm-56.192 0a2.83 2.83 0 0 1 0-4l6.4-6.4a2.829 2.829 0 0 1 4 4l-6.4 6.4a2.831 2.831 0 0 1-4 0zM26.2 59.8A23.764 23.764 0 1 1 43 66.763 23.609 23.609 0 0 1 26.2 59.8zM24.4 43A18.6 18.6 0 1 0 43 24.4 18.618 18.618 0 0 0 24.4 43zm49.715 2.263a2.829 2.829 0 0 1 0-5.657h9.052a2.829 2.829 0 1 1 0 5.657zm-71.29 0a2.829 2.829 0 0 1 0-5.657h9.053a2.829 2.829 0 0 1 0 5.657zm59.3-22.523a2.83 2.83 0 0 1 0-4l6.4-6.4a2.829 2.829 0 0 1 4 4l-6.4 6.4a2.828 2.828 0 0 1-4 0zm-43.388 0l-6.4-6.4a2.829 2.829 0 0 1 4-4l6.4 6.4a2.829 2.829 0 1 1-4 4zm20.868-10.858V2.829a2.829 2.829 0 0 1 5.657 0v9.053a2.829 2.829 0 0 1-5.657 0z" transform="translate(-92 -1024) translate(99 1031)"/>
    </g>
</svg>
