<svg xmlns="http://www.w3.org/2000/svg" width="100" height="100" viewBox="0 0 100 100">
    <defs>
        <style>
            .cls-2{fill:none;stroke:#fff;stroke-linecap:round;stroke-linejoin:round;stroke-width:5px}
        </style>
    </defs>
    <g id="icon_wind" transform="translate(-92 -1024)">
        <path id="패스_4" d="M102.4 1074H178s9-1.78 9-10.8-6.279-12.486-12.286-12.486S162.8 1053.2 162.4 1063.2" class="cls-2" transform="translate(-2 1)"/>
        <path id="패스_5" d="M140 1074h38a10.54 10.54 0 0 0 8.429-10.8c0-9.36-7.486-9.686-10.029-9.8s-9.8 1.191-9.8 9.8" class="cls-2" transform="translate(-32 -13)"/>
        <path id="패스_6" d="M140 1053.4h38s8.429 1.78 8.429 10.8S179 1074 176.4 1074s-9.8-1.191-9.8-9.8" class="cls-2" transform="translate(-13 33)"/>
    </g>
</svg>
