<svg xmlns="http://www.w3.org/2000/svg" width="100" height="100" viewBox="0 0 100 100">
    <defs>
        <style>
            .cls-3{fill:#fff}
        </style>
    </defs>
    <g id="icon_snow" transform="translate(-92 -1024)">
        <g id="body" transform="translate(102.858 1032.769)">
            <g id="body_B" transform="translate(.142 .231)">
                <g id="body_B-2" fill="none" stroke="none">
                    <path d="M16.194 57a16.195 16.195 0 0 1-2.621-32.175 23.607 23.607 0 0 1-.166-2.8C13.406 9.86 22.683 0 34.125 0a20.34 20.34 0 0 1 16.8 9.136q.731-.067 1.478-.067c9.212 0 16.719 7.759 17.052 17.463A16.2 16.2 0 0 1 61.807 57z"/>
                    <path fill="#fff" d="M61.807 53c3.257 0 6.319-1.268 8.622-3.57C72.732 47.125 74 44.063 74 40.806c0-4.5-2.466-8.62-6.435-10.751l-2.026-1.088-.079-2.3c-.127-3.704-1.57-7.155-4.064-9.717-2.438-2.504-5.63-3.883-8.99-3.883-.371 0-.746.017-1.115.051l-2.346.214-1.325-1.948c-1.532-2.254-3.557-4.12-5.854-5.396C39.391 4.669 36.82 4 34.126 4c-4.42 0-8.588 1.844-11.738 5.191-3.212 3.415-4.982 7.972-4.982 12.832 0 .779.047 1.562.138 2.328L18 28.157l-3.784.616c-2.82.46-5.405 1.915-7.28 4.099C5.042 35.077 4 37.895 4 40.807c0 3.257 1.268 6.319 3.572 8.622 2.303 2.303 5.365 3.572 8.622 3.572h45.613m0 4H16.194C7.25 57 0 49.75 0 40.807c0-8.05 5.876-14.73 13.573-15.982-.11-.918-.167-1.853-.167-2.802C13.406 9.86 22.683 0 34.126 0c6.915 0 13.039 3.6 16.802 9.136.487-.045.98-.068 1.478-.068 9.212 0 16.719 7.76 17.052 17.464 5.084 2.73 8.542 8.1 8.542 14.275C78 49.75 70.75 57 61.807 57z"/>
                </g>
            </g>
        </g>
        <g id="line_snow" transform="translate(115.434 1092.372)">
            <g id="line_snow_b">
                <path id="line_snow_b-2" d="M4.384 10.636V7.16L1.265 8.91a.856.856 0 0 1-1.152-.3.807.807 0 0 1 .309-1.12l3.119-1.75L.422 3.99a.806.806 0 0 1-.309-1.12.857.857 0 0 1 1.152-.3l3.119 1.75V.843a.844.844 0 0 1 1.688 0V4.32L9.19 2.569a.858.858 0 0 1 1.153.3.807.807 0 0 1-.31 1.12L6.915 5.74l3.119 1.75a.808.808 0 0 1 .31 1.121.857.857 0 0 1-1.153.3L6.071 7.16v3.476a.844.844 0 1 1-1.687 0z" class="cls-3"/>
            </g>
            <g id="line_snow_b-3" transform="translate(21.686)">
                <path id="line_snow_b-4" d="M4.384 10.636V7.16L1.265 8.91a.856.856 0 0 1-1.152-.3.807.807 0 0 1 .309-1.12l3.119-1.75L.422 3.99a.806.806 0 0 1-.309-1.12.857.857 0 0 1 1.152-.3l3.119 1.75V.843a.844.844 0 0 1 1.688 0V4.32L9.19 2.569a.858.858 0 0 1 1.153.3.807.807 0 0 1-.31 1.12L6.915 5.74l3.119 1.75a.808.808 0 0 1 .31 1.121.857.857 0 0 1-1.153.3L6.071 7.16v3.476a.844.844 0 1 1-1.687 0z" class="cls-3"/>
            </g>
            <g id="line_snow_b-5" transform="translate(44.647)">
                <path id="line_snow_b-6" d="M4.384 10.636V7.16L1.265 8.91a.856.856 0 0 1-1.152-.3.807.807 0 0 1 .309-1.12l3.119-1.75L.422 3.99a.806.806 0 0 1-.309-1.12.857.857 0 0 1 1.152-.3l3.119 1.75V.843a.844.844 0 0 1 1.688 0V4.32L9.19 2.569a.858.858 0 0 1 1.153.3.807.807 0 0 1-.31 1.12L6.915 5.74l3.119 1.75a.808.808 0 0 1 .31 1.121.857.857 0 0 1-1.153.3L6.071 7.16v3.476a.844.844 0 1 1-1.687 0z" class="cls-3"/>
            </g>
            <g id="line_snow_b-7" transform="translate(33.167 11.481)">
                <path id="line_snow_b-8" d="M4.384 10.636V7.16L1.265 8.91a.856.856 0 0 1-1.152-.3.807.807 0 0 1 .309-1.12l3.119-1.75L.422 3.99a.806.806 0 0 1-.309-1.12.857.857 0 0 1 1.152-.3l3.119 1.75V.843a.844.844 0 0 1 1.688 0V4.32L9.19 2.569a.858.858 0 0 1 1.153.3.807.807 0 0 1-.31 1.12L6.915 5.74l3.119 1.75a.808.808 0 0 1 .31 1.121.857.857 0 0 1-1.153.3L6.071 7.16v3.476a.844.844 0 1 1-1.687 0z" class="cls-3"/>
            </g>
            <g id="line_snow_b-9" transform="translate(10.205 11.481)">
                <path id="line_snow_b-10" d="M4.384 10.636V7.16L1.265 8.91a.856.856 0 0 1-1.152-.3.807.807 0 0 1 .309-1.12l3.119-1.75L.422 3.99a.806.806 0 0 1-.309-1.12.857.857 0 0 1 1.152-.3l3.119 1.75V.843a.844.844 0 0 1 1.688 0V4.32L9.19 2.569a.858.858 0 0 1 1.153.3.807.807 0 0 1-.31 1.12L6.915 5.74l3.119 1.75a.808.808 0 0 1 .31 1.121.857.857 0 0 1-1.153.3L6.071 7.16v3.476a.844.844 0 1 1-1.687 0z" class="cls-3"/>
            </g>
        </g>
    </g>
</svg>
