<svg xmlns="http://www.w3.org/2000/svg" width="100" height="100" viewBox="0 0 100 100">
    <defs>
        <style>
            .cls-2{fill:none}.cls-3,.cls-4{stroke:none}.cls-4{fill:#fff}
        </style>
    </defs>
    <g id="icon_humidity" transform="translate(-81 -1024)">
        <g id="패스_7" class="cls-2">
            <path d="M21.216-39.6S40.609 2.629 40.609 13.929a20.305 20.305 0 1 1-40.609 0C0 2.629 21.216-39.6 21.216-39.6z" class="cls-3" transform="translate(111.195 1078.612)"/>
            <path d="M21.053-30.145c-1.92 4.008-4.36 9.215-6.788 14.693-3.04 6.86-5.458 12.782-7.185 17.6C4.4 9.623 4 12.738 4 13.928c0 4.403 1.7 8.54 4.786 11.65 3.079 3.102 7.17 4.81 11.519 4.81s8.44-1.708 11.518-4.81c3.086-3.11 4.786-7.247 4.786-11.65 0-1.21-.367-4.364-2.827-11.873-1.579-4.818-3.788-10.74-6.566-17.6-2.2-5.43-4.413-10.6-6.163-14.6m.163-9.455S40.61 2.63 40.61 13.929c0 11.299-9.09 20.459-20.304 20.459C9.09 34.388 0 25.228 0 13.928 0 2.63 21.216-39.6 21.216-39.6z" class="cls-4" transform="translate(111.195 1078.612)"/>
        </g>
        <g id="패스_64" class="cls-2">
            <path d="M8.677-39.6s7.932 17.272 7.932 21.893A8.336 8.336 0 0 1 8.3-9.339 8.336 8.336 0 0 1 0-17.707C0-22.328 8.677-39.6 8.677-39.6z" class="cls-3" transform="translate(143.195 1073.476)"/>
            <path d="M8.512-29.921c-.166.368-.333.742-.5 1.119C4.146-20.082 4.003-17.922 4-17.707c0 2.409 1.931 4.368 4.305 4.368 2.373 0 4.304-1.96 4.304-4.368 0-.215-.103-2.359-3.663-11.152-.144-.358-.29-.712-.434-1.062m.165-9.679s7.932 17.272 7.932 21.893c0 4.622-3.718 8.368-8.304 8.368C3.718-9.339 0-13.085 0-17.707 0-22.328 8.677-39.6 8.677-39.6z" class="cls-4" transform="translate(143.195 1073.476)"/>
        </g>
    </g>
</svg>
