<svg xmlns="http://www.w3.org/2000/svg" width="67.499" height="103.395" viewBox="0 0 67.499 103.395">
    <g>
        <path fill="#fff" d="M9.913 103.395A2.109 2.109 0 0 1 8.3 99.93L16.632 90A19.98 19.98 0 0 1 0 70.28V31.812a20 20 0 0 1 20-20h9.847l-1.8-9.282h-4a1.265 1.265 0 0 1 0-2.531h21.092a1.265 1.265 0 1 1 0 2.531h-4l-1.8 9.282H47.5a20 20 0 0 1 20 20V70.28A20 20 0 0 1 50.866 90l8.334 9.93a2.109 2.109 0 0 1-3.232 2.712L45.6 90.28H21.9l-10.37 12.361a2.107 2.107 0 0 1-1.617.754zm40.711-36.74a5.063 5.063 0 1 0 5.063 5.063 5.068 5.068 0 0 0-5.063-5.063zm-32.906 0a5.063 5.063 0 1 0 5.063 5.063 5.068 5.068 0 0 0-5.063-5.063zM15.655 27a3 3 0 0 0-3 3v10.03a3 3 0 0 0 3 3h36.188a3 3 0 0 0 3-3V30a3 3 0 0 0-3-3zM30.621 2.531l1.8 9.282h4.339l1.8-9.282z" transform="translate(-132.107 -61.889) translate(132.107 61.889)"/>
    </g>
</svg>
