<svg xmlns="http://www.w3.org/2000/svg" width="100" height="100" viewBox="0 0 100 100">
    <g>
        <g>
            <g>
                <g fill="none">
                    <path d="M15.625 55a15.626 15.626 0 0 1-1.718-31.156A21.266 21.266 0 0 1 35 0a21.223 21.223 0 0 1 17.233 8.815q.75-.064 1.517-.065a17.5 17.5 0 0 1 17.476 16.578A15.627 15.627 0 0 1 64.375 55z" transform="translate(-50 -1275) translate(60 1284.892) translate(0 .108)"/>
                    <path fill="#fff" d="M64.375 51c3.105 0 6.024-1.21 8.22-3.405C74.791 45.399 76 42.48 76 39.375c0-2.22-.626-4.376-1.812-6.236-1.157-1.816-2.788-3.274-4.718-4.217l-2.116-1.034-.122-2.352c-.18-3.453-1.661-6.672-4.174-9.064-2.52-2.4-5.825-3.722-9.307-3.722-.392 0-.787.017-1.175.05l-2.257.194-1.327-1.836c-1.57-2.17-3.65-3.971-6.016-5.208C40.5 4.656 37.816 4 35 4c-4.608 0-8.94 1.794-12.197 5.052-3.258 3.258-5.053 7.59-5.053 12.198 0 .706.043 1.416.128 2.11l.489 4.02-4.025.44c-2.825.309-5.436 1.648-7.352 3.771C5.062 33.73 4 36.493 4 39.375c0 3.105 1.21 6.024 3.405 8.22C9.6 49.791 12.52 51 15.625 51h48.75m0 4h-48.75C6.995 55 0 48.004 0 39.375c0-8.049 6.086-14.676 13.907-15.531-.104-.85-.157-1.716-.157-2.594C13.75 9.514 23.264 0 35 0c7.092 0 13.373 3.475 17.233 8.815.5-.043 1.006-.065 1.518-.065 9.355 0 16.996 7.342 17.475 16.578C76.422 27.868 80 33.203 80 39.375 80 48.005 73.004 55 64.375 55z" transform="translate(-50 -1275) translate(60 1284.892) translate(0 .108)"/>
                </g>
            </g>
        </g>
        <g>
            <g>
                <path fill="#fff" d="M26.083 23.654a1.876 1.876 0 0 1-.907-2.492l5.283-11.329a1.875 1.875 0 0 1 3.4 1.585l-5.284 11.329a1.874 1.874 0 0 1-2.492.907zm-20 0a1.876 1.876 0 0 1-.907-2.492l5.283-11.329a1.875 1.875 0 0 1 3.4 1.585L8.574 22.747a1.873 1.873 0 0 1-2.491.907zm32.5-8.751a1.875 1.875 0 0 1-.907-2.491l5.283-11.329a1.875 1.875 0 1 1 3.4 1.585L41.075 14a1.874 1.874 0 0 1-2.492.906zm-18.751 0a1.875 1.875 0 0 1-.906-2.491l5.283-11.329a1.875 1.875 0 1 1 3.4 1.585L22.325 14a1.874 1.874 0 0 1-2.492.906zm-18.75 0a1.875 1.875 0 0 1-.907-2.491L5.458 1.083a1.875 1.875 0 1 1 3.4 1.585L3.575 14a1.874 1.874 0 0 1-2.492.906z" transform="translate(-50 -1275) translate(74.367 1342.138)"/>
            </g>
        </g>
    </g>
</svg>
