<svg xmlns="http://www.w3.org/2000/svg" width="92.326" height="92.746" viewBox="0 0 92.326 92.746">
    <defs>
        <style>
            .cls-3,.cls-4{fill:none;stroke-linecap:round;stroke-width:3px}.cls-3{stroke:#fff}.cls-4{stroke:#535353}
        </style>
    </defs>
    <g id="icon_health" transform="translate(-111.762 -1418.667)">
        <path id="패스_53" fill="#585858" d="M138.776 1459.433c-6.029.9-4.522 2.412-3.316 9.345s6.331 22.911 3.316 26.528-17.183 15.073-18.389 18.389-1.47 8.782 2.449 9.385 19.388 3.047 32.2-1.4 17.964-13.633 19.133-18.38 4.473-15.164 6.583-19.083 3.583-4.417 6.333-7c2.5-1 12.284-18.384 12.585-24.112-.3-3.015-9.044-3.919-9.948-2.713s-5.728-17.183-23.514-18.389c-.602 17.18-21.403 26.526-27.432 27.43z" transform="translate(-7.835 -12.881)"/>
        <path id="패스_54" fill="#7ac2f2" d="M136.761 1456.99c-5.4.81-4.456 5.988-3.376 12.2s6.077 15.449 3.376 18.691-14.655 16.323-15.736 19.293-2.412 7.536 0 8.441 26.886.321 32.558-2.11 11.435-8.54 14.1-15.29 3.6-14.661 5.493-18.172 5.426-8.742 5.426-8.742l13.566-22.609-3.919-4.22s-8.714-13.842-24.649-14.923c-.539 15.393-21.437 26.63-26.839 27.441z" transform="translate(-7.268 -10.881)"/>
        <path id="패스_55" d="M0 0h15.676" class="cls-3" transform="translate(126.117 1463.132)"/>
        <path id="패스_56" d="M0 0h24.471" class="cls-4" transform="translate(178.117 1481.132)"/>
        <path id="선_6" d="M0 0L13.264 0" class="cls-3" transform="translate(126.117 1470.368)"/>
        <path id="선_8" d="M0 0L24.471 0" class="cls-4" transform="translate(178.117 1488.368)"/>
        <path id="선_7" d="M0 0L13.264 0" class="cls-3" transform="translate(123.705 1477.603)"/>
        <path id="선_9" d="M0 0L13.264 0" class="cls-4" transform="translate(175.705 1495.603)"/>
    </g>
</svg>
