<svg xmlns="http://www.w3.org/2000/svg" width="106" height="70.49" viewBox="0 0 106 70.49">
    <g>
        <path fill="#599ff1" d="M90.4 70.49h-5.9a5.006 5.006 0 0 1-5-5v-2.95h-53v2.95a5.005 5.005 0 0 1-5 5h-5.9a5.005 5.005 0 0 1-5-5v-2.95H2a2 2 0 0 1-2-2v-29.1a6.006 6.006 0 0 1 6-6h4.77l.31-.986-6.461-4.2a2.667 2.667 0 1 1 2.905-4.473l5.217 3.388 3.992-12.686a9.566 9.566 0 0 1 2.817-4.918A7.712 7.712 0 0 1 24.683 0h55.044c2.3 0 3.782.4 4.941 1.351s2.053 2.477 3.01 5.132l4.908 12.262 4.558-2.959a2.667 2.667 0 0 1 2.905 4.473l-5.442 3.534.661 1.648H100a6.007 6.007 0 0 1 6 6v29.1a2 2 0 0 1-2 2h-8.6v2.95a5.006 5.006 0 0 1-5 4.999zm-.731-35.5a6 6 0 1 0 6 6 6.007 6.007 0 0 0-6-6.003zm-73.339 0a6 6 0 1 0 6 6 6.007 6.007 0 0 0-6-6.003zM29.464 5.528c-2.942 0-4.511.574-5.468 3.836l-4.188 13.427h66.78L81.417 9.364c-1.138-2.581-2.927-3.836-5.468-3.836z"/>
    </g>
</svg>
